<svg xmlns="http://www.w3.org/2000/svg" xmlns:xlink="http://www.w3.org/1999/xlink" width="11" height="11" viewBox="0 0 11 11">
<path d="M6.41492 5.70998C6.31106 5.60409 6.31272 5.43405 6.41861 5.33021C6.5245 5.22636 6.69454 5.22801 6.79838 5.3339L10.1175 8.71815C10.2214 8.82405 10.2197 8.99407 10.1138 9.09793C10.0079 9.20178 9.83789 9.20013 9.73404 9.09424L6.41492 5.70998ZM1.26596 9.09423C1.1621 9.20012 0.992063 9.20176 0.886177 9.09792C0.780281 8.99406 0.778637 8.82403 0.882482 8.71814L4.2016 5.3339C4.30545 5.22801 4.47548 5.22636 4.58137 5.33021C4.68727 5.43405 4.68892 5.60409 4.58506 5.70998L1.26594 9.09423L1.26596 9.09423Z">
</path>
<path d="M0.882482 2.32574C0.778637 2.21985 0.780281 2.04981 0.886177 1.94596C0.992063 1.84211 1.1621 1.84376 1.26596 1.94965L4.9248 5.68031C5.23636 5.99798 5.74646 6.00293 6.06412 5.69137C6.06785 5.68772 6.07154 5.68402 6.07519 5.68031L9.73404 1.94965C9.83789 1.84376 10.0079 1.84211 10.1138 1.94596C10.2197 2.04981 10.2214 2.21985 10.1175 2.32574L6.45866 6.05639C6.45257 6.0626 6.44642 6.06875 6.44021 6.07484C5.91076 6.5941 5.0606 6.58584 4.54133 6.05638L0.882482 2.32574Z">
</path>
<path d="M1.02051 2.05176L1.02051 8.95898L9.99023 8.95898L9.99023 2.05176L1.02051 2.05176ZM1.02051 1.40723L9.99023 1.40723C10.3462 1.40723 10.6348 1.69579 10.6348 2.05176L10.6348 8.95898C10.6348 9.31494 10.3462 9.60351 9.99023 9.60351L1.02051 9.60351C0.664544 9.60351 0.375977 9.31494 0.375977 8.95898L0.375977 2.05176C0.375977 1.69579 0.664544 1.40723 1.02051 1.40723Z">
</path>
</svg>
